<svg xmlns="http://www.w3.org/2000/svg" xmlns:xlink="http://www.w3.org/1999/xlink" width="64" height="64" viewBox="0 0 64 64">
  <defs>
    <linearGradient id="linear-gradient" x1="0.5" x2="0.5" y2="1" gradientUnits="objectBoundingBox">
      <stop offset="0" stop-color="#eaedf1"/>
      <stop offset="1" stop-color="#d6dee6"/>
    </linearGradient>
    <clipPath id="clip-path">
      <path id="mask" d="M48.089,33.187H3.319A3.319,3.319,0,0,1,0,29.868V3.319A3.319,3.319,0,0,1,3.319,0h44.77a3.319,3.319,0,0,1,3.319,3.319v26.55a3.319,3.319,0,0,1-3.319,3.319" transform="translate(0 0)" fill="rgba(33,38,44,0.16)"/>
    </clipPath>
    <linearGradient id="linear-gradient-2" x1="0.5" x2="0.5" y2="1" gradientUnits="objectBoundingBox">
      <stop offset="0" stop-color="#1d9ec9"/>
      <stop offset="1" stop-color="#1989ae"/>
    </linearGradient>
  </defs>
  <g id="_64x64-atm" data-name="64x64-atm" transform="translate(-0.151)">
    <rect id="Rectangle_5104" data-name="Rectangle 5104" width="64" height="64" transform="translate(0.151)" fill="#fff" opacity="0"/>
    <g id="Group_10303" data-name="Group 10303" transform="translate(2.028 11.764)">
      <g id="back" transform="translate(0 0)">
        <path id="container" d="M48.089,33.187H3.319A3.319,3.319,0,0,1,0,29.868V3.319A3.319,3.319,0,0,1,3.319,0h44.77a3.319,3.319,0,0,1,3.319,3.319v26.55a3.319,3.319,0,0,1-3.319,3.319" transform="translate(0 0)" fill="url(#linear-gradient)"/>
        <path id="Union_3" data-name="Union 3" d="M.389,5.107A.389.389,0,0,1,0,4.718V3.578a.389.389,0,0,1,.389-.389H36.756a.389.389,0,0,1,.389.389v1.14a.389.389,0,0,1-.389.389Zm0-3.189A.389.389,0,0,1,0,1.529V.389A.389.389,0,0,1,.389,0H46.8a.389.389,0,0,1,.389.389v1.14a.389.389,0,0,1-.389.389Z" transform="translate(2.111 23.518)" fill="#bfccd9" stroke="rgba(0,0,0,0)" stroke-miterlimit="10" stroke-width="1"/>
        <rect id="Rectangle_5107" data-name="Rectangle 5107" width="51.408" height="8.317" transform="translate(0 4.33)" fill="#99adc2"/>
        <rect id="Rectangle_5108" data-name="Rectangle 5108" width="29.306" height="4.675" transform="translate(2.111 15.52)" fill="#fff"/>
        <g id="Mask_Group_1" data-name="Mask Group 1" clip-path="url(#clip-path)">
          <path id="shadow" d="M104.259,101.186H59.489a3.319,3.319,0,0,1-3.319-3.319V71.318A3.319,3.319,0,0,1,59.489,68h44.77a3.319,3.319,0,0,1,3.319,3.319v26.55a3.319,3.319,0,0,1-3.319,3.319" transform="translate(-49.87 -61.8)" fill="rgba(33,38,44,0.12)"/>
        </g>
      </g>
      <g id="front" transform="translate(9.039 7.761)">
        <path id="container-2" data-name="container" d="M104.259,101.186H59.489a3.319,3.319,0,0,1-3.319-3.319V71.318A3.319,3.319,0,0,1,59.489,68h44.77a3.319,3.319,0,0,1,3.319,3.319v26.55a3.319,3.319,0,0,1-3.319,3.319" transform="translate(-56.17 -67.999)" fill="url(#linear-gradient-2)"/>
        <path id="Union_2" data-name="Union 2" d="M2.271,5.4A1.98,1.98,0,0,0,2.3,3.573a1.737,1.737,0,0,0,0-1.679A1.87,1.87,0,0,0,2.2,0H6.307a.929.929,0,0,1,.928.928v.8H5.169l-.03.045a1.78,1.78,0,0,0-.054,1.778A2.006,2.006,0,0,0,5.194,5.4Zm.437-.369H4.65v-.2H2.708ZM2.708.6H4.625V.4H2.708ZM5.439,5.4a1.8,1.8,0,0,1-.176-1.75H7.234V4.47a.929.929,0,0,1-.928.927ZM.927,5.4A.928.928,0,0,1,0,4.47V3.709H2.142A1.71,1.71,0,0,1,2.03,5.4ZM40.12,5.074c-.135-.068-.1-.247-.1-.247l.082-.187a4.218,4.218,0,0,0,.448-2.417A4.109,4.109,0,0,0,40.045.656a.267.267,0,0,1,.089-.313c.313-.1.388.14.388.14A5.047,5.047,0,0,1,41.1,2.521a4.659,4.659,0,0,1-.582,2.425.281.281,0,0,1-.241.17A.35.35,0,0,1,40.12,5.074Zm-.9-.455c-.217-.1-.112-.374-.112-.374a2.457,2.457,0,0,0,.425-1.41,3.083,3.083,0,0,0-.425-1.672A.3.3,0,0,1,39.2.821a.285.285,0,0,1,.319.032.339.339,0,0,1,.091.169,3.051,3.051,0,0,1,.44,1.612A3.309,3.309,0,0,1,39.6,4.454a.321.321,0,0,1-.26.195A.273.273,0,0,1,39.224,4.619Zm-.969-.5c-.128-.075-.06-.336-.06-.336a2.238,2.238,0,0,0,.306-1,2.377,2.377,0,0,0-.314-1.173c-.1-.164.083-.321.083-.321a.348.348,0,0,1,.276,0,2.414,2.414,0,0,1,.462,1.142,2.563,2.563,0,0,1-.328,1.56.315.315,0,0,1-.272.168A.3.3,0,0,1,38.254,4.119ZM37.567,3.7a.341.341,0,0,1-.254-.119h0a.272.272,0,0,1-.016-.253.938.938,0,0,0,.217-.538.9.9,0,0,0-.187-.649.284.284,0,0,1,.023-.359c.253-.156.385.022.385.022l.017.017a1.342,1.342,0,0,1,.261.828,1.36,1.36,0,0,1-.246.954.253.253,0,0,1-.2.1ZM0,3.509V2H2.129A1.543,1.543,0,0,1,2.1,3.509Zm5.258-.063a1.577,1.577,0,0,1,.02-1.517H7.234V3.446ZM0,.928A.929.929,0,0,1,.928,0H1.934c.028.023.656.58.181,1.8H0Z" transform="translate(5.522 10.403)" fill="#fff" stroke="rgba(0,0,0,0)" stroke-miterlimit="10" stroke-width="1"/>
        <path id="Union_1" data-name="Union 1" d="M.389,8.019A.421.421,0,0,1,0,7.571V6.256a.422.422,0,0,1,.389-.448H21.071a.423.423,0,0,1,.389.448V7.571a.422.422,0,0,1-.389.448ZM21.875,2.195a.361.361,0,0,1-.389-.321V.355a.36.36,0,0,1,.389-.32h7.356a.359.359,0,0,1,.389.32V1.874a.36.36,0,0,1-.389.321Zm-10.743,0a.36.36,0,0,1-.389-.321V.355a.359.359,0,0,1,.389-.32h7.356a.359.359,0,0,1,.389.32V1.874a.36.36,0,0,1-.389.321Zm-10.743,0A.36.36,0,0,1,0,1.874V.355A.359.359,0,0,1,.389.035H7.745a.359.359,0,0,1,.389.32V1.874a.36.36,0,0,1-.389.321ZM32.618,2.16a.36.36,0,0,1-.389-.32V.321A.361.361,0,0,1,32.618,0h7.357a.36.36,0,0,1,.388.321V1.84a.359.359,0,0,1-.388.32Z" transform="translate(5.522 20.217)" fill="#0a5a75" stroke="rgba(0,0,0,0)" stroke-miterlimit="10" stroke-width="1"/>
      </g>
    </g>
  </g>
</svg>
