<svg id="_64x64-vnpay-qr" data-name="64x64-vnpay-qr" xmlns="http://www.w3.org/2000/svg" xmlns:xlink="http://www.w3.org/1999/xlink" width="64" height="64" viewBox="0 0 64 64">
  <defs>
    <clipPath id="clip-path">
      <rect id="Rectangle_5810" data-name="Rectangle 5810" width="47.464" height="54.857" fill="none"/>
    </clipPath>
  </defs>
  <rect id="Rectangle_5811" data-name="Rectangle 5811" width="64" height="64" fill="#fff" opacity="0"/>
  <g id="Group_18104" data-name="Group 18104" transform="translate(8.268 4.571)">
    <g id="Group_18103" data-name="Group 18103" clip-path="url(#clip-path)">
      <path id="Path_19679" data-name="Path 19679" d="M74.07.5H76l1.611,4.44,1.376-3.682a.4.4,0,0,0-.055-.311C78.86.794,78.779.645,78.7.5h1.44c-.081.3-.209.626-.315.933L77.961,6.607a3.078,3.078,0,0,1-1.509-.69,2.482,2.482,0,0,1-.609-1.044L74.287.935A2.807,2.807,0,0,0,74.07.5m7.692,2.08V5.75c0,.128.034.149.119.256l.375.473H80.445q.147-.23.307-.448a.481.481,0,0,0,.111-.311V1.284L80.351.5h1.879l3.043,3.75V1.255a.447.447,0,0,0-.106-.311c-.1-.149-.2-.3-.311-.443h1.811l-.375.473a.309.309,0,0,0-.111.256v5.4a2.591,2.591,0,0,1-1.9-.946Z" transform="translate(-67.503 -0.452)" fill="#e50019" fill-rule="evenodd"/>
      <path id="Path_19680" data-name="Path 19680" d="M220.4,5.828V1.733a1.456,1.456,0,0,0-.087-.574A.932.932,0,0,0,220.005.8V.784h2.684a2.352,2.352,0,0,1,1.217.269,1.44,1.44,0,0,1,.608.636,1.77,1.77,0,0,1,.161.715q0,1.43-1.669,1.753l-.577.053a3.011,3.011,0,0,0-.335-.035,1.345,1.345,0,0,0,.895-1.347q0-1.166-.953-1.166V5.62a1.272,1.272,0,0,0,.416,1.077v.035h-2.447V6.715a.983.983,0,0,0,.394-.887" transform="translate(-200.501 -0.714)" fill="#004a9c"/>
      <path id="Path_19681" data-name="Path 19681" d="M265.28,5.378l1.239-3.514a1.9,1.9,0,0,0,.116-.536A.655.655,0,0,0,266.3.8V.784h2.233l1.781,4.726a3.18,3.18,0,0,0,.306.688,2.567,2.567,0,0,0,.445.5v.035h-2.778V6.7a.6.6,0,0,0,.376-.516,1.138,1.138,0,0,0-.072-.388l-.286-.86h-1.821l-.268.758a2.783,2.783,0,0,0-.125.507.439.439,0,0,0,.085.251,1.1,1.1,0,0,0,.251.247v.035h-1.875V6.7a1.619,1.619,0,0,0,.425-.516q.067-.141.137-.326t.168-.476m1.469-1.291H268l-.643-1.8Z" transform="translate(-241.097 -0.714)" fill="#004a9c"/>
      <path id="Path_19682" data-name="Path 19682" d="M325.573,4.075,323.841,1.5a3.3,3.3,0,0,0-.327-.419,1.969,1.969,0,0,0-.3-.234V.834h2.215l1.356,2.152.77-1.094a1.4,1.4,0,0,0,.179-.379.676.676,0,0,0,.031-.265.514.514,0,0,0-.313-.4V.834h2.1l-2.268,3.241V5.592q0,.1.007.185t.011.154a1.639,1.639,0,0,0,.063.3.963.963,0,0,0,.34.512v.035h-2.532V6.743a.856.856,0,0,0,.4-.851Z" transform="translate(-294.561 -0.76)" fill="#004a9c"/>
      <path id="Path_19683" data-name="Path 19683" d="M394.225,1.479a1.417,1.417,0,0,1,.054-.387A1.59,1.59,0,0,1,394.44.73,1.417,1.417,0,0,1,395.009.2a1.817,1.817,0,0,1,.866-.2,1.353,1.353,0,0,1,.376.048A1.576,1.576,0,0,1,396.6.2a1.345,1.345,0,0,1,.514.533,1.814,1.814,0,0,1,.151.376,1.725,1.725,0,0,1,.05.427,1.68,1.68,0,0,1-.138.646,1.51,1.51,0,0,1-.4.558l.213.2a2.85,2.85,0,0,0,.272.228,1.7,1.7,0,0,0,.32.184,1.08,1.08,0,0,0,.366.1,1.349,1.349,0,0,1-.353.213,1.039,1.039,0,0,1-.391.073.88.88,0,0,1-.349-.073,1.778,1.778,0,0,1-.335-.18c-.111-.075-.211-.153-.3-.226l-.238-.2c-.017,0-.038,0-.065,0s-.059.006-.1.013l-.142.013a1.365,1.365,0,0,1-.747-.215,1.45,1.45,0,0,1-.523-.581,1.723,1.723,0,0,1-.14-.385,1.908,1.908,0,0,1-.048-.427m.847.008a1.312,1.312,0,0,0,.033.293,2.764,2.764,0,0,0,.08.27,1.044,1.044,0,0,0,.257.422.56.56,0,0,0,.412.165.508.508,0,0,0,.468-.251,1.23,1.23,0,0,0,.153-.642c0-.067-.008-.176-.021-.322a2.221,2.221,0,0,0-.061-.3,1.467,1.467,0,0,0-.088-.247.709.709,0,0,0-.255-.32.656.656,0,0,0-.379-.109.473.473,0,0,0-.188.038.512.512,0,0,0-.159.1.73.73,0,0,0-.192.324,1.489,1.489,0,0,0-.061.431v.142Zm3.357.031a.607.607,0,0,0,.249-.1.526.526,0,0,0,.171-.2A.669.669,0,0,0,398.9,1.1a.536.536,0,0,0,.015-.13A.518.518,0,0,0,398.8.632.41.41,0,0,0,398.464.5h-.036Zm0,.236v.83a.443.443,0,0,0,.192.42v.019h-1.2V3.005a.436.436,0,0,0,.184-.414V.558a1.044,1.044,0,0,0-.033-.291.375.375,0,0,0-.151-.188V.071h1.462a1.024,1.024,0,0,1,.439.09.7.7,0,0,1,.307.27.628.628,0,0,1,.086.2.83.83,0,0,1,.031.232.75.75,0,0,1-.109.362.9.9,0,0,1-.416.347l.579.977a1.946,1.946,0,0,0,.376.452l-.508.038-.128,0h-.119a.53.53,0,0,1-.272-.059.53.53,0,0,1-.184-.224Z" transform="translate(-359.275 0)" fill="#e50019" fill-rule="evenodd"/>
      <rect id="Rectangle_5783" data-name="Rectangle 5783" width="4.471" height="0.273" transform="translate(0.07 4.395)" fill="#004a9a"/>
      <path id="Path_19684" data-name="Path 19684" d="M4.61,49.2H0v-.412H4.61ZM.139,49.06H4.471v-.134H.139Z" transform="translate(0 -44.462)" fill="#004a9a"/>
      <rect id="Rectangle_5784" data-name="Rectangle 5784" width="0.279" height="4.991" transform="translate(0.07 4.395)" fill="#004a9a"/>
      <path id="Path_19685" data-name="Path 19685" d="M.418,53.917H0v-5.13H.418Zm-.279-.139h.14V48.926H.139Z" transform="translate(0 -44.462)" fill="#004a9a"/>
      <rect id="Rectangle_5785" data-name="Rectangle 5785" width="0.279" height="4.852" transform="translate(47.116 4.534)" fill="#004a9a"/>
      <path id="Path_19686" data-name="Path 19686" d="M531.09,55.35h-.418V50.359h.418Zm-.279-.139h.14V50.5h-.14Z" transform="translate(-483.626 -45.894)" fill="#004a9a"/>
      <rect id="Rectangle_5786" data-name="Rectangle 5786" width="4.476" height="0.273" transform="translate(42.918 4.534)" fill="#004a9a"/>
      <path id="Path_19687" data-name="Path 19687" d="M487.94,50.771h-4.615v-.412h4.615Zm-4.476-.139H487.8V50.5h-4.337Z" transform="translate(-440.476 -45.894)" fill="#004a9a"/>
      <rect id="Rectangle_5787" data-name="Rectangle 5787" width="4.337" height="0.273" transform="translate(42.918 51.58)" fill="#004a9a"/>
      <path id="Path_19688" data-name="Path 19688" d="M487.8,581.443h-4.476v-.412H487.8Zm-4.337-.139h4.2v-.134h-4.2Z" transform="translate(-440.476 -529.52)" fill="#004a9a"/>
      <rect id="Rectangle_5788" data-name="Rectangle 5788" width="0.279" height="4.707" transform="translate(46.976 47.147)" fill="#004a9a"/>
      <path id="Path_19689" data-name="Path 19689" d="M529.518,535.869H529.1v-4.846h.418Zm-.279-.139h.14v-4.568h-.14Z" transform="translate(-482.193 -483.946)" fill="#004a9a"/>
      <rect id="Rectangle_5789" data-name="Rectangle 5789" width="0.279" height="4.707" transform="translate(0.07 47.147)" fill="#004a9a"/>
      <path id="Path_19690" data-name="Path 19690" d="M.418,535.869H0v-4.846H.418Zm-.279-.139h.14v-4.568H.139Z" transform="translate(0 -483.946)" fill="#004a9a"/>
      <rect id="Rectangle_5790" data-name="Rectangle 5790" width="4.471" height="0.273" transform="translate(0.07 51.58)" fill="#004a9a"/>
      <path id="Path_19691" data-name="Path 19691" d="M4.61,581.443H0v-.412H4.61ZM.139,581.3H4.471v-.134H.139Z" transform="translate(0 -529.52)" fill="#004a9a"/>
      <path id="Path_19692" data-name="Path 19692" d="M116.877,567.008a.858.858,0,0,0,.492-.114.545.545,0,0,0,.212-.35.334.334,0,0,0-.034-.251,1,1,0,0,0-.287-.25l-.589-.406a1.236,1.236,0,0,1-.3-.287.658.658,0,0,1-.123-.307,1.051,1.051,0,0,1,.021-.346,1.149,1.149,0,0,1,.447-.714,1.668,1.668,0,0,1,1.006-.26,1.88,1.88,0,0,1,.489.063,1.3,1.3,0,0,1,.351.138.3.3,0,0,1,.073.061.089.089,0,0,1,.013.076l-.075.348q-.028.125-.145.078a2.181,2.181,0,0,0-.377-.1,2.322,2.322,0,0,0-.452-.05q-.539,0-.614.358a.242.242,0,0,0,.039.211,1.407,1.407,0,0,0,.284.235l.539.366a1.424,1.424,0,0,1,.353.322.734.734,0,0,1,.142.331,1.142,1.142,0,0,1-.021.387,1.331,1.331,0,0,1-.241.525,1.305,1.305,0,0,1-.509.395,1.884,1.884,0,0,1-.8.153,2,2,0,0,1-.562-.073,1.375,1.375,0,0,1-.337-.133.329.329,0,0,1-.079-.066.093.093,0,0,1-.006-.072l.075-.348q.025-.118.145-.078a2.7,2.7,0,0,0,.874.16" transform="translate(-105.514 -513.747)" fill="#008ed4"/>
      <path id="Path_19693" data-name="Path 19693" d="M150.049,576.546a2.48,2.48,0,0,0,.687-.118q.115-.03.09.083l-.068.328a.159.159,0,0,1-.043.076.318.318,0,0,1-.1.056,1.528,1.528,0,0,1-.692.148,1.19,1.19,0,0,1-.579-.129.688.688,0,0,1-.327-.408,1.386,1.386,0,0,1,0-.708l.1-.479a1.754,1.754,0,0,1,.3-.7,1.283,1.283,0,0,1,.5-.413,1.523,1.523,0,0,1,.636-.133,1.164,1.164,0,0,1,.629.148.187.187,0,0,1,.071.056.1.1,0,0,1,.009.076l-.07.328q-.025.113-.125.083-.158-.055-.288-.086a1.407,1.407,0,0,0-.323-.031q-.519,0-.661.671l-.1.479a.688.688,0,0,0,.033.517.363.363,0,0,0,.318.154" transform="translate(-135.769 -523.25)" fill="#008ed4"/>
      <path id="Path_19694" data-name="Path 19694" d="M176.134,574.715a2.955,2.955,0,0,0-.847.133q-.115.03-.09-.083l.065-.313a.146.146,0,0,1,.041-.078.293.293,0,0,1,.1-.055,2.516,2.516,0,0,1,.413-.118,2.565,2.565,0,0,1,.519-.05,1.194,1.194,0,0,1,.542.108.573.573,0,0,1,.291.331,1,1,0,0,1,.011.541l-.373,1.749a.185.185,0,0,1-.028.078.121.121,0,0,1-.068.035,4.372,4.372,0,0,1-.461.1,3.719,3.719,0,0,1-.531.033,2.064,2.064,0,0,1-.669-.088.545.545,0,0,1-.336-.277.794.794,0,0,1-.023-.5l.005-.025a1.261,1.261,0,0,1,.148-.388.859.859,0,0,1,.264-.271,1.212,1.212,0,0,1,.407-.164,2.688,2.688,0,0,1,.579-.054h.361l.048-.226q.05-.241-.038-.328a.466.466,0,0,0-.328-.088m.06,1.852.16-.759h-.361a1.148,1.148,0,0,0-.353.041.316.316,0,0,0-.174.128.756.756,0,0,0-.086.242l-.008.03a.407.407,0,0,0,0,.222.19.19,0,0,0,.133.108,1.178,1.178,0,0,0,.318.031,1.4,1.4,0,0,0,.371-.043" transform="translate(-159.176 -523.25)" fill="#008ed4"/>
      <path id="Path_19695" data-name="Path 19695" d="M207.452,576.972a.13.13,0,0,1-.046.074.12.12,0,0,1-.079.034h-.474a.07.07,0,0,1-.064-.034.1.1,0,0,1-.014-.074l.361-1.694a.892.892,0,0,0,.021-.323.236.236,0,0,0-.122-.175.629.629,0,0,0-.3-.055,2.7,2.7,0,0,0-.516.055l-.466,2.192a.126.126,0,0,1-.044.076.122.122,0,0,1-.081.031h-.471a.073.073,0,0,1-.066-.034.1.1,0,0,1-.014-.074l.546-2.566q.015-.075.125-.1a4.964,4.964,0,0,1,.574-.111,4.138,4.138,0,0,1,.556-.042,1.048,1.048,0,0,1,.829.267.992.992,0,0,1,.1.856Z" transform="translate(-186.899 -523.25)" fill="#008ed4"/>
      <path id="Path_19696" data-name="Path 19696" d="M258,571.121a.119.119,0,0,1-.115.093,2.669,2.669,0,0,1-.411.035,1.368,1.368,0,0,1-.466-.061.324.324,0,0,1-.205-.237,1.205,1.205,0,0,1,.027-.516l.341-1.611-.408-.073q-.1-.018-.083-.1l.05-.23a.121.121,0,0,1,.043-.073.12.12,0,0,1,.08-.03h.426l.09-.421a.133.133,0,0,1,.125-.1l.494-.083h.023c.053,0,.074.026.063.078l-.113.529h.519a.077.077,0,0,1,.083.1l-.065.3a.132.132,0,0,1-.046.073.122.122,0,0,1-.079.03h-.519l-.341,1.611a.523.523,0,0,0-.019.238q.021.048.157.047h.328c.072,0,.1.026.093.078Z" transform="translate(-233.924 -517.378)" fill="#008ed4"/>
      <path id="Path_19697" data-name="Path 19697" d="M279.79,575.842a1.792,1.792,0,0,1-.282.659,1.432,1.432,0,0,1-.514.456,1.488,1.488,0,0,1-.7.163,1.121,1.121,0,0,1-.633-.163.764.764,0,0,1-.322-.456,1.413,1.413,0,0,1,0-.659l.088-.413a1.8,1.8,0,0,1,.281-.659,1.412,1.412,0,0,1,.516-.456,1.5,1.5,0,0,1,.7-.163,1.112,1.112,0,0,1,.634.163.775.775,0,0,1,.319.456,1.4,1.4,0,0,1,0,.659Zm-.677,0,.088-.413a.74.74,0,0,0-.034-.507.383.383,0,0,0-.37-.187.6.6,0,0,0-.447.187,1.007,1.007,0,0,0-.249.507l-.088.413a.735.735,0,0,0,.035.507.381.381,0,0,0,.366.187.6.6,0,0,0,.448-.187,1,1,0,0,0,.251-.507" transform="translate(-252.714 -523.25)" fill="#008ed4"/>
      <path id="Path_19698" data-name="Path 19698" d="M326.393,564.952a1.329,1.329,0,0,1-.6.918,2.146,2.146,0,0,1-1.13.284l-.177-.006-.178-.009-.1-.005-.283,1.338a.129.129,0,0,1-.045.074.117.117,0,0,1-.075.029h-.514a.082.082,0,0,1-.064-.03.078.078,0,0,1-.016-.073l.749-3.53a.163.163,0,0,1,.064-.107.316.316,0,0,1,.134-.046,6.725,6.725,0,0,1,1.02-.068,1.6,1.6,0,0,1,1.011.277.846.846,0,0,1,.214.908Zm-.709,0,.01-.045a.452.452,0,0,0-.089-.458.845.845,0,0,0-.552-.138,4.38,4.38,0,0,0-.461.022l-.261,1.22q.245.015.453.015a1.344,1.344,0,0,0,.457-.066.64.64,0,0,0,.289-.2.824.824,0,0,0,.153-.348" transform="translate(-294.554 -513.746)" fill="#008ed4"/>
      <path id="Path_19699" data-name="Path 19699" d="M356.59,574.715a2.955,2.955,0,0,0-.847.133q-.115.03-.09-.083l.065-.313a.146.146,0,0,1,.041-.078.293.293,0,0,1,.1-.055,2.517,2.517,0,0,1,.414-.118,2.565,2.565,0,0,1,.519-.05,1.194,1.194,0,0,1,.542.108.573.573,0,0,1,.291.331,1,1,0,0,1,.011.541l-.373,1.749a.185.185,0,0,1-.028.078.121.121,0,0,1-.068.035,4.371,4.371,0,0,1-.461.1,3.719,3.719,0,0,1-.531.033,2.065,2.065,0,0,1-.669-.088.545.545,0,0,1-.336-.277.794.794,0,0,1-.023-.5l.005-.025a1.261,1.261,0,0,1,.148-.388.86.86,0,0,1,.264-.271,1.212,1.212,0,0,1,.407-.164,2.688,2.688,0,0,1,.579-.054h.361l.048-.226q.05-.241-.038-.328a.466.466,0,0,0-.328-.088m.06,1.852.16-.759h-.361a1.148,1.148,0,0,0-.353.041.316.316,0,0,0-.174.128.757.757,0,0,0-.086.242l-.008.03a.407.407,0,0,0,0,.222.19.19,0,0,0,.133.108,1.178,1.178,0,0,0,.318.031,1.4,1.4,0,0,0,.371-.043" transform="translate(-323.634 -523.25)" fill="#008ed4"/>
      <path id="Path_19700" data-name="Path 19700" d="M385.212,574.635a.083.083,0,0,1-.013.03l-1.5,3a2.262,2.262,0,0,1-.294.471.89.89,0,0,1-.363.253,1.586,1.586,0,0,1-.557.083,2.246,2.246,0,0,1-.286-.02,1.477,1.477,0,0,1-.243-.047q-.1-.028-.09-.088l.07-.328a.109.109,0,0,1,.044-.065.128.128,0,0,1,.079-.027h.01q.068,0,.283.017t.288.015a.619.619,0,0,0,.2-.028.357.357,0,0,0,.149-.1.86.86,0,0,0,.132-.2l.073-.153h-.075a.458.458,0,0,1-.162-.028.257.257,0,0,1-.128-.121.681.681,0,0,1-.069-.277l-.17-2.35a.086.086,0,0,1,0-.035.1.1,0,0,1,.115-.083h.519a.068.068,0,0,1,.056.028.1.1,0,0,1,.021.065l.075,2.087c0,.075.015.113.045.113h.048l1.022-2.205a.127.127,0,0,1,.123-.088h.524a.072.072,0,0,1,.058.026.068.068,0,0,1,.015.061" transform="translate(-348.014 -523.611)" fill="#008ed4"/>
      <path id="Path_19701" data-name="Path 19701" d="M231.612,95.547v1.374h1.374V94.173h1.374V92.8h-2.748v1.374h-2.748v1.374h2.748Z" transform="translate(-208.574 -84.572)" fill="#1a1718"/>
      <path id="Path_19702" data-name="Path 19702" d="M292.224,95.547v2.748H293.6V95.547h1.374V94.173h2.748V92.8h-5.5v1.374H290.85v1.374Z" transform="translate(-265.065 -84.572)" fill="#1a1718"/>
      <path id="Path_19703" data-name="Path 19703" d="M338.714,125.166v1.374h1.374v-2.748H337.34v1.374Z" transform="translate(-307.433 -112.817)" fill="#1a1718"/>
      <path id="Path_19704" data-name="Path 19704" d="M230.237,140.662v1.374h-1.374v4.122h1.374V143.41h1.374v-1.374h1.374v-1.374h-1.374v-1.374h-1.374Z" transform="translate(-208.574 -126.94)" fill="#1a1718"/>
      <path id="Path_19705" data-name="Path 19705" d="M293.6,154.786v1.374h-2.748v5.5H293.6v-2.748h-1.374v-1.374H293.6v1.374h1.374v-1.374h1.374v-2.748H293.6Z" transform="translate(-265.066 -141.063)" fill="#1a1718"/>
      <path id="Path_19706" data-name="Path 19706" d="M168.251,99.668h4.122V95.547H171V92.8h-2.748v1.374h-1.374v8.243h1.374V99.668Zm0-2.748V95.547h1.374v2.748h-1.374Z" transform="translate(-152.083 -84.572)" fill="#1a1718"/>
      <rect id="Rectangle_5791" data-name="Rectangle 5791" width="1.374" height="1.374" transform="translate(23.037 16.47)" fill="#1a1718"/>
      <rect id="Rectangle_5792" data-name="Rectangle 5792" width="1.374" height="1.374" transform="translate(31.28 16.47)" fill="#1a1718"/>
      <path id="Path_19707" data-name="Path 19707" d="M337.34,202.649v1.374h4.122v-1.374h-2.748v-1.374H337.34Z" transform="translate(-307.434 -183.431)" fill="#1a1718"/>
      <rect id="Rectangle_5793" data-name="Rectangle 5793" width="1.374" height="1.374" transform="translate(23.037 19.218)" fill="#1a1718"/>
      <rect id="Rectangle_5794" data-name="Rectangle 5794" width="1.374" height="1.374" transform="translate(42.271 21.965)" fill="#1a1718"/>
      <path id="Path_19708" data-name="Path 19708" d="M358.332,249.139h-1.374v-1.374H354.21v1.374h-1.374v1.374h1.374v1.374h1.374v-1.374h1.374v1.374h2.748v-1.374h-1.374Z" transform="translate(-321.556 -225.8)" fill="#1a1718"/>
      <path id="Path_19709" data-name="Path 19709" d="M404.822,220.893h-1.374v-2.748h1.374v1.374H406.2v-2.748h-6.869v1.374h2.748v4.122h2.748v1.374h2.748v-1.374H406.2v-1.374Z" transform="translate(-363.925 -197.554)" fill="#1a1718"/>
      <path id="Path_19710" data-name="Path 19710" d="M430.32,297h1.374v-2.748H430.32V297Z" transform="translate(-392.171 -268.168)" fill="#1a1718"/>
      <rect id="Rectangle_5795" data-name="Rectangle 5795" width="1.374" height="1.374" transform="translate(31.28 28.835)" fill="#1a1718"/>
      <path id="Path_19711" data-name="Path 19711" d="M217.1,298.377V297H215.73v-2.748h-1.374v4.122h-1.374V302.5h1.374v1.374h-1.374V302.5h-1.374v1.374h-2.748v1.374h1.374v1.374h1.374v1.374h-1.374V306.62h-1.374v1.374h-1.374V306.62h1.374v-1.374h-1.374v-1.374h-1.374v1.374h-1.374v-1.374H197.87v1.374h5.5v2.748h-1.374v1.374h4.122v1.374h1.374v-1.374h1.374v2.748h-2.748v-1.374h-4.122v1.374h1.374v1.374h4.122v1.374h-5.5v-1.374h-1.374v2.748h10.991v-2.748h1.374v-1.374h2.748v-1.374h2.748v1.374h1.374v-1.374h1.374v4.122H222.6v1.374h1.374v-4.121H222.6v-1.374h1.374v-2.748H222.6v1.374h-2.748v-1.374h-1.374V306.62h1.374v-1.374h-1.374v-1.374H217.1v-2.748h1.374V299.75H217.1Zm-5.5,12.365v1.374h-1.374v-2.748h1.374Zm2.748-10.991h1.374v1.374h-1.374Zm2.748,6.869v2.748h-4.122v-4.122H217.1Z" transform="translate(-180.328 -268.168)" fill="#1a1718"/>
      <path id="Path_19712" data-name="Path 19712" d="M430.32,312.5v1.374h2.748V312.5h1.374v1.374h1.374v-4.122h-1.374v1.374h-2.748V312.5Z" transform="translate(-392.171 -282.291)" fill="#1a1718"/>
      <path id="Path_19713" data-name="Path 19713" d="M49.774,191.274h1.374V189.9h1.374v1.374H51.148v1.374h4.122v-1.374H53.9V189.9h4.122v-4.122H56.643v1.374H55.269v1.374h-5.5V189.9H47.026v-1.374H45.652V189.9H42.9v1.374h1.374v1.374H42.9v1.374h4.122v-1.374H45.652v-1.374h1.374v1.374H48.4v-1.374Z" transform="translate(-39.101 -169.308)" fill="#1a1718"/>
      <path id="Path_19714" data-name="Path 19714" d="M106.264,264.635v-1.374h-1.374v2.748h1.374Z" transform="translate(-95.592 -239.922)" fill="#1a1718"/>
      <path id="Path_19715" data-name="Path 19715" d="M44.278,294.255H42.9V297h1.374v-2.748Z" transform="translate(-39.1 -268.168)" fill="#1a1718"/>
      <rect id="Rectangle_5796" data-name="Rectangle 5796" width="1.374" height="1.374" transform="translate(7.925 26.087)" fill="#1a1718"/>
      <path id="Path_19716" data-name="Path 19716" d="M138.632,280.132v-1.374h-2.748v1.374h1.374v1.374h1.374Z" transform="translate(-123.838 -254.045)" fill="#1a1718"/>
      <rect id="Rectangle_5797" data-name="Rectangle 5797" width="1.374" height="1.374" transform="translate(6.551 27.461)" fill="#1a1718"/>
      <path id="Path_19717" data-name="Path 19717" d="M106.264,311.125V312.5h1.374v-1.374h1.374v-1.374h-4.122v1.374Z" transform="translate(-95.592 -282.291)" fill="#1a1718"/>
      <rect id="Rectangle_5798" data-name="Rectangle 5798" width="1.374" height="1.374" transform="translate(14.794 27.461)" fill="#1a1718"/>
      <rect id="Rectangle_5799" data-name="Rectangle 5799" width="1.374" height="1.374" transform="translate(5.177 28.835)" fill="#1a1718"/>
      <rect id="Rectangle_5800" data-name="Rectangle 5800" width="1.374" height="1.374" transform="translate(7.925 28.835)" fill="#1a1718"/>
      <path id="Path_19718" data-name="Path 19718" d="M137.258,326.622h-1.374V328h2.748v-2.748h-1.374Z" transform="translate(-123.837 -296.414)" fill="#1a1718"/>
      <rect id="Rectangle_5801" data-name="Rectangle 5801" width="1.374" height="1.374" transform="translate(3.804 30.208)" fill="#1a1718"/>
      <rect id="Rectangle_5802" data-name="Rectangle 5802" width="1.374" height="1.374" transform="translate(9.299 31.582)" fill="#1a1718"/>
      <rect id="Rectangle_5803" data-name="Rectangle 5803" width="1.374" height="1.374" transform="translate(14.794 31.582)" fill="#1a1718"/>
      <path id="Path_19719" data-name="Path 19719" d="M47.026,371.738H42.9v1.374h5.5v-1.374Z" transform="translate(-39.101 -338.782)" fill="#1a1718"/>
      <path id="Path_19720" data-name="Path 19720" d="M121.761,371.738h-1.374v1.374h2.748v-1.374Z" transform="translate(-109.714 -338.782)" fill="#1a1718"/>
      <rect id="Rectangle_5804" data-name="Rectangle 5804" width="1.374" height="1.374" transform="translate(9.299 34.33)" fill="#1a1718"/>
      <path id="Path_19721" data-name="Path 19721" d="M44.278,402.732H42.9v1.374h4.122v-1.374H44.278Z" transform="translate(-39.1 -367.028)" fill="#1a1718"/>
      <path id="Path_19722" data-name="Path 19722" d="M430.32,374.486h2.748v-1.374h-1.374v-1.374H430.32v2.748Z" transform="translate(-392.171 -338.782)" fill="#1a1718"/>
      <path id="Path_19723" data-name="Path 19723" d="M478.184,373.112v-1.374H476.81v2.748h1.374Z" transform="translate(-434.539 -338.782)" fill="#1a1718"/>
      <path id="Path_19724" data-name="Path 19724" d="M140.006,388.608v-1.374h-2.748v1.374h-1.374v1.374h2.748V394.1h1.374V392.73h1.374v-2.748h-1.374Z" transform="translate(-123.837 -352.905)" fill="#1a1718"/>
      <rect id="Rectangle_5805" data-name="Rectangle 5805" width="1.374" height="1.374" transform="translate(40.897 35.704)" fill="#1a1718"/>
      <rect id="Rectangle_5806" data-name="Rectangle 5806" width="1.374" height="1.374" transform="translate(42.271 37.078)" fill="#1a1718"/>
      <path id="Path_19725" data-name="Path 19725" d="M214.741,433.725h-1.374V435.1h2.748v-1.374Z" transform="translate(-194.451 -395.273)" fill="#1a1718"/>
      <rect id="Rectangle_5807" data-name="Rectangle 5807" width="1.374" height="1.374" transform="translate(34.028 38.451)" fill="#1a1718"/>
      <path id="Path_19726" data-name="Path 19726" d="M168.251,467.466h-1.374v1.374h1.374v1.374h1.374V468.84H171v-2.748h-1.374v-1.374h-1.374v2.748Z" transform="translate(-152.083 -423.519)" fill="#1a1718"/>
      <path id="Path_19727" data-name="Path 19727" d="M400.7,497.085h-1.374v1.374H400.7v1.374h2.748v-2.748h-1.374v-1.374H400.7Z" transform="translate(-363.925 -451.764)" fill="#1a1718"/>
      <rect id="Rectangle_5808" data-name="Rectangle 5808" width="1.374" height="1.374" transform="translate(32.654 45.321)" fill="#1a1718"/>
      <rect id="Rectangle_5809" data-name="Rectangle 5809" width="1.374" height="1.374" transform="translate(17.542 46.695)" fill="#1a1718"/>
      <path id="Path_19728" data-name="Path 19728" d="M51.3,92.8H43.059v9.617h9.617V92.8Zm0,2.748v5.5H44.433V94.173H51.3Z" transform="translate(-39.242 -84.572)" fill="#004c9a"/>
      <path id="Path_19729" data-name="Path 19729" d="M76.646,123.792H73.9v4.122h4.121v-4.122Z" transform="translate(-67.347 -112.818)" fill="#004c9a"/>
      <path id="Path_19730" data-name="Path 19730" d="M392.228,92.8h-8.243v9.617H393.6V92.8Zm0,2.748v5.5h-6.869V94.173h6.869Z" transform="translate(-349.943 -84.572)" fill="#004c9a"/>
      <path id="Path_19731" data-name="Path 19731" d="M417.571,123.792h-2.748v4.122h4.121v-4.122Z" transform="translate(-378.048 -112.818)" fill="#004c9a"/>
      <path id="Path_19732" data-name="Path 19732" d="M51.3,433.725H43.059v9.617h9.617v-9.617Zm0,2.748v5.5H44.433V435.1H51.3Z" transform="translate(-39.242 -395.274)" fill="#e4001b"/>
      <path id="Path_19733" data-name="Path 19733" d="M76.646,464.718H73.9v4.122h4.121v-4.122Z" transform="translate(-67.347 -423.519)" fill="#e4001b"/>
      <path id="Path_19734" data-name="Path 19734" d="M199.427,262.614l-.991.991-.049.049-.315.315-.235.235-.315.315-.049.049-.137.137-.049.049h0l-.464.464h0l-.049.049a2.038,2.038,0,0,1-.457.344,2.06,2.06,0,0,1-.254.118,2.019,2.019,0,0,1-.6.131,1.993,1.993,0,0,1-.376-.01,2.019,2.019,0,0,1-.775-.258,1.4,1.4,0,0,1-.3-.209h0l-.058-.058-1.8-1.8-.038-.038a.688.688,0,0,1-.083-.113.678.678,0,0,1-.095-.347.589.589,0,0,1,0-.059.722.722,0,0,1,.013-.085l.008-.032,0-.013a.7.7,0,0,1,.125-.237c.015-.019.031-.037.049-.055l.032-.031,1.922-1.923h0l1.165-1.165a.693.693,0,0,1,.946-.033Z" transform="translate(-174.919 -236.237)" fill="#004c9a"/>
      <path id="Path_19735" data-name="Path 19735" d="M216.693,279.9a1.089,1.089,0,0,1-.454-.1l-.369-.369-.09-.09-.015-.016-.172-.172-.861-.87.058.058a1.4,1.4,0,0,0,.3.21,2.046,2.046,0,0,0,1.751.137,2.063,2.063,0,0,0,.254-.118,2.039,2.039,0,0,0,.457-.344l.049-.049h0l.464-.464h0l.049-.049.137-.137.049-.049.315-.315.235-.235.315-.316.049-.049,2-2,.824-.892.005-.005.044-.044a.644.644,0,0,1,.911,0l.451.451h0l.015.015a.737.737,0,0,0-.552.21l-1.526,1.5-.015.019-2.655,2.613,0,0-.978.961-.006.008s-.024.027-.059.062a1.734,1.734,0,0,1-.453.319,1.324,1.324,0,0,1-.295.1,1.181,1.181,0,0,1-.176.022Z" transform="translate(-195.694 -249.196)" fill="#e4001b"/>
      <path id="Path_19736" data-name="Path 19736" d="M244.187,286.046l-.049.049-2.163,2.2L239.7,290.6a2,2,0,0,1-.228.2l-.009.008-.033.024,0,0a2.094,2.094,0,0,1-2.658-.188h0l-.051-.045-.391-.391-1.1-1.1-.366-.366-.051-.051a1.129,1.129,0,0,0,.18.014h.051a1.267,1.267,0,0,0,.208-.025,1.5,1.5,0,0,0,.337-.114,1.922,1.922,0,0,0,.5-.354c.033-.033.058-.06.069-.072l.844-.829,0,0,2.9-2.855.015-.019,1.41-1.387a.557.557,0,0,1,.7-.062l.334.334h0l1.812,1.812a.674.674,0,0,1,.046.05.645.645,0,0,1-.046.861" transform="translate(-213.997 -257.812)" fill="#e4001b"/>
      <path id="Path_19737" data-name="Path 19737" d="M218.207,281.967a.133.133,0,0,1-.187,0,2.2,2.2,0,1,0-3.126,3.1l.67.675a.059.059,0,0,1,.012.015h-.01a1.992,1.992,0,0,1-.366-.009l-.492-.5a2.465,2.465,0,1,1,3.5-3.473l0,0a.13.13,0,0,1,0,.185" transform="translate(-195.022 -256.136)" fill="#008ed2"/>
      <path id="Path_19738" data-name="Path 19738" d="M267.409,297.121l-.186.186-.326-.328a.132.132,0,1,1,.187-.185Z" transform="translate(-243.2 -270.446)" fill="#008ed2"/>
      <path id="Path_19739" data-name="Path 19739" d="M224.411,300.436l-.006,0a2.063,2.063,0,0,1-.248.115l-.912-.92a1.689,1.689,0,0,1-.194-2.143.132.132,0,1,1,.217.149,1.425,1.425,0,0,0,.164,1.809Z" transform="translate(-203.008 -271.066)" fill="#008ed2"/>
      <path id="Path_19740" data-name="Path 19740" d="M237.707,291.336l0,0-.137.137-.044.044-1.026-1.034a1.42,1.42,0,0,0-1.452-.352.131.131,0,1,1-.081-.25,1.681,1.681,0,0,1,1.719.416Z" transform="translate(-214.049 -264.11)" fill="#008ed2"/>
      <path id="Path_19741" data-name="Path 19741" d="M234.116,299.9l-.186.186-1.028-1.036a.646.646,0,1,0-.917.91l.663.668a.132.132,0,0,1-.187.185l-.663-.668a.909.909,0,0,1,1.291-1.281Z" transform="translate(-211.008 -272.121)" fill="#008ed2"/>
      <path id="Path_19742" data-name="Path 19742" d="M241.556,308.44l0,0-.137.137-.044.044-1.031-1.038a.132.132,0,0,1,.187-.185Z" transform="translate(-218.997 -280.114)" fill="#008ed2"/>
    </g>
  </g>
</svg>
