<svg xmlns="http://www.w3.org/2000/svg" xmlns:xlink="http://www.w3.org/1999/xlink" width="64" height="64" viewBox="0 0 64 64">
  <defs>
    <clipPath id="clip-path">
      <rect id="Rectangle_5125" data-name="Rectangle 5125" width="20.149" height="12.604" fill="none"/>
    </clipPath>
    <linearGradient id="linear-gradient" y1="1" x2="0.008" y2="1" gradientUnits="objectBoundingBox">
      <stop offset="0" stop-color="#26235c"/>
      <stop offset="0.228" stop-color="#232660"/>
      <stop offset="0.488" stop-color="#1d2f6e"/>
      <stop offset="0.763" stop-color="#133e85"/>
      <stop offset="1" stop-color="#08509f"/>
    </linearGradient>
  </defs>
  <g id="_64x64-credit" data-name="64x64-credit" transform="translate(-0.151)">
    <rect id="Rectangle_5126" data-name="Rectangle 5126" width="64" height="64" transform="translate(0.151)" fill="#fff" opacity="0"/>
    <g id="unionpay" transform="translate(33.979 33.829)">
      <rect id="boundingbox" width="24.686" height="24.686" transform="translate(0 0)" fill="#fff" opacity="0"/>
      <g id="Group_10321" data-name="Group 10321" transform="translate(2.301 6.212)">
        <g id="Group_10320" data-name="Group 10320" clip-path="url(#clip-path)">
          <path id="Path_8625" data-name="Path 8625" d="M3.947,0H8.976A.98.98,0,0,1,9.95,1.277L7.609,11.329A1.709,1.709,0,0,1,6.038,12.6H1.01a.98.98,0,0,1-.975-1.275L2.377,1.277A1.7,1.7,0,0,1,3.947,0" transform="translate(-0.001 0)" fill="#e21836"/>
          <path id="Path_8626" data-name="Path 8626" d="M31.345,0h5.783c.7,0,.385.572.22,1.277L35.007,11.329c-.164.7-.113,1.275-.816,1.275H28.408a.977.977,0,0,1-.974-1.275L29.775,1.277A1.708,1.708,0,0,1,31.345,0" transform="translate(-22.788 0)" fill="#00447c"/>
          <path id="Path_8627" data-name="Path 8627" d="M64.349,0h5.029a.979.979,0,0,1,.975,1.277L68.012,11.329A1.71,1.71,0,0,1,66.44,12.6H61.413a.978.978,0,0,1-.975-1.275L62.78,1.277A1.7,1.7,0,0,1,64.349,0" transform="translate(-50.239 0)" fill="#007b84"/>
          <path id="Path_8628" data-name="Path 8628" d="M16.447,19.055a5.388,5.388,0,0,1-.719-.012c-.019.089-.368,1.7-.369,1.7a1.179,1.179,0,0,1-.316.708.563.563,0,0,1-.371.129.343.343,0,0,1-.386-.33l0-.074s.07-.436.07-.439.366-1.467.432-1.661a.119.119,0,0,0,.005-.022,5.353,5.353,0,0,1-.848-.012c0,.016-.022.107-.022.107L13.546,20.8l-.032.14-.062.459a.675.675,0,0,0,.08.341c.17.3.656.342.931.342a1.806,1.806,0,0,0,.911-.213,1.349,1.349,0,0,0,.583-.91L16,20.8s.377-1.524.441-1.722a.064.064,0,0,1,.007-.022m1.284,1.229a1,1,0,0,0-.406.1c-.054.028-.105.06-.16.092l.049-.176-.027-.03c-.317.064-.387.073-.68.114l-.025.016a8.63,8.63,0,0,1-.19,1.047c-.048.2-.1.41-.147.613l.013.026c.3-.016.391-.016.651-.011l.021-.023c.033-.169.037-.209.111-.552.034-.163.106-.521.142-.648a.486.486,0,0,1,.191-.06c.146,0,.128.127.123.178-.006.085-.06.363-.114.6l-.036.154c-.026.114-.053.224-.079.337l.011.023c.3-.016.386-.016.638-.011l.03-.023c.046-.265.059-.336.14-.721l.041-.177c.079-.347.119-.523.059-.666a.344.344,0,0,0-.354-.2m1.434.363c-.157.03-.257.05-.357.063s-.195.03-.347.051l-.012.011-.011.009c-.016.113-.027.211-.048.326s-.045.254-.09.448a1.778,1.778,0,0,1-.072.252,2.164,2.164,0,0,0-.079.249l.009.014.008.012c.142-.007.235-.011.33-.012s.194,0,.347,0l.013-.011.014-.012c.022-.132.025-.167.039-.231s.037-.164.093-.419c.027-.12.057-.239.084-.361s.059-.241.088-.361l0-.014Zm0-.489a.575.575,0,0,0-.562.059c-.168.114-.187.276-.045.361a.574.574,0,0,0,.559-.06c.168-.116.189-.277.048-.36m.863,1.95a1.072,1.072,0,0,0,.807-.316,1.428,1.428,0,0,0,.277-.594.755.755,0,0,0-.067-.681.743.743,0,0,0-.606-.222,1.112,1.112,0,0,0-.761.263,1.246,1.246,0,0,0-.338.657c-.055.238-.117.667.277.826a1.152,1.152,0,0,0,.41.067m-.023-.875c.067-.294.145-.542.346-.542.157,0,.169.184.1.479a1.32,1.32,0,0,1-.148.413.243.243,0,0,1-.189.123c-.021,0-.147,0-.148-.186a1.268,1.268,0,0,1,.041-.288m1.829.837.023-.023c.032-.17.037-.209.108-.553.036-.163.109-.521.143-.648a.481.481,0,0,1,.192-.06c.145,0,.127.127.122.178a5.783,5.783,0,0,1-.114.6l-.034.154c-.026.114-.055.225-.08.338l.011.023c.3-.016.383-.016.637-.011l.031-.023c.044-.265.056-.336.14-.721l.04-.177c.079-.347.12-.522.061-.665a.348.348,0,0,0-.355-.2.991.991,0,0,0-.407.1c-.053.028-.106.06-.159.092l.045-.176-.024-.03c-.317.064-.389.073-.681.114l-.022.016a9,9,0,0,1-.19,1.047c-.048.2-.1.41-.147.613l.013.026c.3-.016.39-.016.65-.011m2.178.011c.019-.091.129-.63.13-.63s.094-.4.1-.41a.235.235,0,0,1,.059-.057h.044a2.027,2.027,0,0,0,1.241-.268,1.323,1.323,0,0,0,.493-.785,1.184,1.184,0,0,0,.034-.273.574.574,0,0,0-.1-.349c-.186-.26-.556-.265-.983-.267l-.211,0c-.547.007-.766,0-.856-.006-.008.04-.022.111-.022.111s-.2.908-.2.909l-.491,2.021c.477-.006.673-.006.756,0m.363-1.613.207-.9.007-.046,0-.036.083.009.44.038a.358.358,0,0,1,.19.455.662.662,0,0,1-.343.453,1.086,1.086,0,0,1-.483.075H24.37Zm1.3.781c-.055.235-.118.663.274.816a.766.766,0,0,0,.351.063.579.579,0,0,0,.335-.154l-.028.107.018.023c.282-.012.37-.012.675-.01l.028-.021c.045-.262.087-.517.2-1.019.057-.24.113-.478.171-.718l-.009-.026c-.316.058-.4.071-.7.114l-.023.019c0,.024-.006.048-.009.071a.433.433,0,0,0-.221-.182.844.844,0,0,0-.724.263,1.23,1.23,0,0,0-.336.653m.663.014c.068-.289.145-.534.346-.534.127,0,.194.117.18.317-.011.05-.022.1-.036.162-.02.086-.042.171-.063.256a.616.616,0,0,1-.074.15.347.347,0,0,1-.246.119c-.02,0-.144,0-.149-.183a1.256,1.256,0,0,1,.041-.288m3.46-.955-.024-.028c-.312.063-.369.073-.655.112l-.021.021s0,.009,0,.013v0c-.214.493-.207.386-.381.774,0-.018,0-.029,0-.047l-.044-.841-.027-.028c-.327.063-.335.073-.637.112l-.024.021a.231.231,0,0,0-.005.033l0,0a4.24,4.24,0,0,1,.067.454c.018.149.041.3.059.447.03.247.046.369.083.746-.2.337-.252.464-.449.759v0l-.138.219a.1.1,0,0,1-.05.046.208.208,0,0,1-.091.013H27.38l-.114.379.391.007a.482.482,0,0,0,.451-.252l.246-.421h0l.026-.03c.165-.356,1.422-2.512,1.422-2.512m-4.123,4.975h-.166l.613-2.029h.2l.065-.209.006.232c-.008.144.106.271.4.25h.343l.118-.391h-.129c-.074,0-.109-.019-.1-.059l-.006-.236h-.636a8.916,8.916,0,0,0-.944.053,1.11,1.11,0,0,0-.309.153l.062-.209H24.6l-.124.415-.622,2.06h-.121l-.118.388H24.8l-.04.129h.584l.039-.129h.164Zm-.486-1.617a2.638,2.638,0,0,0-.272.106l.158-.518h.473l-.114.378a1.531,1.531,0,0,0-.244.035m.009.741s-.148.019-.246.041a2.422,2.422,0,0,0-.277.121l.163-.54h.475Zm-.265.88h-.474l.137-.455h.473Zm1.142-1.258h.683l-.1.318h-.692l-.1.348h.606l-.459.646a.189.189,0,0,1-.093.078.272.272,0,0,1-.123.035h-.168l-.115.381h.44a.535.535,0,0,0,.463-.24l.315-.43.067.437a.206.206,0,0,0,.113.148.408.408,0,0,0,.154.066c.069,0,.119.005.152.005h.216l.13-.426h-.085a.357.357,0,0,1-.148-.024.233.233,0,0,1-.022-.091l-.068-.438h-.281l.123-.146h.691l.106-.348h-.64l.1-.318h.638l.118-.392h-1.9ZM20.3,25.377l.16-.531h.655l.12-.395h-.656l.1-.326h.641l.119-.382h-1.6l-.116.382h.364l-.1.326h-.366l-.121.4h.364l-.213.7a.167.167,0,0,0,.04.171.175.175,0,0,0,.117.086.707.707,0,0,0,.168.023h.739l.132-.437-.327.045c-.063,0-.238-.008-.219-.066m.075-2.54-.166.3a.351.351,0,0,1-.1.125.32.32,0,0,1-.148.022h-.087l-.116.384h.288a.651.651,0,0,0,.3-.076c.055-.029.069-.012.111-.053l.1-.084h.9l.119-.4h-.658l.115-.218Zm1.327,2.547c-.015-.022,0-.061.019-.142l.246-.813h.874c.127,0,.219,0,.279-.008a.569.569,0,0,0,.21-.071.393.393,0,0,0,.153-.141,1.2,1.2,0,0,0,.151-.342l.309-1.029-.907.005a2.851,2.851,0,0,0-.4.087,1.637,1.637,0,0,0-.3.192l.082-.282h-.56l-.784,2.6a1.605,1.605,0,0,0-.051.218c0,.047.06.094.1.13a.357.357,0,0,0,.183.035c.07.005.17.009.307.009h.43l.132-.446-.386.036a.1.1,0,0,1-.083-.041m.423-1.5h.918l-.058.183a.653.653,0,0,0-.121,0h-.795Zm.184-.613h.926l-.066.22s-.436,0-.506.009a1.032,1.032,0,0,0-.487.217Zm.7,1.409a.1.1,0,0,1-.036.057.182.182,0,0,1-.094.016h-.131l.008-.223h-.544l-.022,1.089c0,.078.007.124.064.16a1.092,1.092,0,0,0,.473.051h.341l.123-.408-.3.016-.1.006a.117.117,0,0,1-.041-.025c-.012-.012-.033,0-.03-.083l0-.279.311-.013a.4.4,0,0,0,.3-.107.333.333,0,0,0,.1-.185l.052-.247h-.428Z" transform="translate(-11.188 -15.833)" fill="#fefefe"/>
        </g>
      </g>
    </g>
    <g id="jcb" transform="translate(5.637 33.829)">
      <rect id="boundingbox-2" data-name="boundingbox" width="24.686" height="24.686" transform="translate(0 0)" fill="#fff" opacity="0"/>
      <g id="Group_10322" data-name="Group 10322" transform="translate(2.436 5.317)">
        <path id="Path_16620" data-name="Path 16620" d="M13,7.438h5.757v6.476H13Zm7.2,0h5.757v6.476H20.2Zm7.2,0h5.757v6.476H27.392Z" transform="translate(-13 -3.119)" fill="#fff"/>
        <path id="Path_16621" data-name="Path 16621" d="M29.173,10.425h1.354a.626.626,0,0,1,.672.485.653.653,0,0,1,0,.3.623.623,0,0,1-.649.485H29.172V10.425Zm1.863-1.432a.627.627,0,0,1,0,.269c-.072.328-.333.449-.672.449H29.173V8.543h1.215A.588.588,0,0,1,31.037,8.993Zm2.72-6.055V15.171A2.159,2.159,0,0,1,31.6,17.33H28V12.439h3.731c.811-.006,1.515-.418,1.515-1.2a1.1,1.1,0,0,0-.011-.15c-.082-.585-.635-.952-1.364-1.007v-.029a1.136,1.136,0,0,0,1.093-1.1,1,1,0,0,0-.516-.894,2.406,2.406,0,0,0-1.272-.232H28V5.1a2.159,2.159,0,0,1,2.159-2.159Z" transform="translate(-13.608 -2.937)" fill="#269732"/>
        <path id="Path_16622" data-name="Path 16622" d="M13,11.26V5.1a2.159,2.159,0,0,1,2.159-2.159h3.6V15.17A2.157,2.157,0,0,1,16.6,17.329H13V12.275a8.454,8.454,0,0,0,4.233.037,1.681,1.681,0,0,0,1.19-1.7V7.829H16.36v2.782a1.108,1.108,0,0,1-.861,1.137,4.191,4.191,0,0,1-2.5-.487Z" transform="translate(-13 -2.937)" fill="#034d9b"/>
        <path id="Path_16623" data-name="Path 16623" d="M20.5,8.477V5.1a2.159,2.159,0,0,1,2.159-2.159h3.6V15.17A2.159,2.159,0,0,1,24.1,17.329H20.5V11.791a3.8,3.8,0,0,0,2.13.749,9.471,9.471,0,0,0,3.119-.266V11.26a4.338,4.338,0,0,1-2.379.523,1.548,1.548,0,0,1-1.512-1.649,1.553,1.553,0,0,1,1.535-1.653,4.436,4.436,0,0,1,2.356.527V7.991A9.67,9.67,0,0,0,22.976,7.7a4.134,4.134,0,0,0-2.476.773Z" transform="translate(-13.304 -2.937)" fill="#ad1031"/>
      </g>
    </g>
    <g id="mc" transform="translate(33.979 6.4)">
      <rect id="boundingbox-3" data-name="boundingbox" width="23.771" height="23.771" transform="translate(0 0)" fill="#fff" opacity="0"/>
      <g id="Group_10306" data-name="Group 10306" transform="translate(2.301 5.507)">
        <rect id="Rectangle_5118" data-name="Rectangle 5118" width="5.448" height="9.791" transform="translate(7.35 1.332)" fill="#ff5f00"/>
        <path id="Path_8617" data-name="Path 8617" d="M7.7,6.232a6.216,6.216,0,0,1,2.378-4.9,6.226,6.226,0,1,0,0,9.791A6.216,6.216,0,0,1,7.7,6.232" transform="translate(0 -0.004)" fill="#eb001b"/>
        <path id="Path_8618" data-name="Path 8618" d="M68.321,6.229a6.226,6.226,0,0,1-10.075,4.895,6.227,6.227,0,0,0,0-9.791A6.226,6.226,0,0,1,68.321,6.227Z" transform="translate(-48.172 -0.001)" fill="#f79e1b"/>
      </g>
    </g>
    <g id="visa" transform="translate(5.637 6.4)">
      <rect id="boundingbox-4" data-name="boundingbox" width="23.771" height="23.771" transform="translate(0 0)" fill="#fff" opacity="0"/>
      <path id="Path_8616" data-name="Path 8616" d="M5.94.115,4.245,4.4,3.56.757A.758.758,0,0,0,2.809.115H.038L0,.3A6.808,6.808,0,0,1,1.606.833a.688.688,0,0,1,.387.552l1.3,5.023H5.012L7.65.115Zm2.409,0L7,6.409H8.63L9.977.115Zm9.335,1.7.493,2.363h-1.35Zm-.238-1.7a.741.741,0,0,0-.693.462L14.309,6.409h1.709l.339-.94h2.089l.2.94h1.506L18.835.115ZM10.42,2.08c-.011.906.808,1.411,1.425,1.713.634.309.847.506.845.782,0,.423-.506.609-.975.616a3.407,3.407,0,0,1-1.672-.4l-.3,1.379a4.931,4.931,0,0,0,1.81.334c1.71,0,2.829-.845,2.834-2.153C14.4,2.693,12.1,2.6,12.112,1.859c0-.225.22-.465.691-.527a3.07,3.07,0,0,1,1.6.281L14.694.279A4.373,4.373,0,0,0,13.171,0c-1.609,0-2.742.856-2.751,2.08" transform="translate(2.436 8.48)" fill="url(#linear-gradient)"/>
    </g>
  </g>
</svg>
