<svg xmlns="http://www.w3.org/2000/svg" xmlns:xlink="http://www.w3.org/1999/xlink" width="64" height="64" viewBox="0 0 64 64">
  <defs>
    <clipPath id="clip-path">
      <rect id="Rectangle_5127" data-name="Rectangle 5127" width="52.387" height="42.459" fill="none"/>
    </clipPath>
  </defs>
  <g id="_64x64-vi-vnpay" data-name="64x64-vi-vnpay" transform="translate(-0.151)">
    <rect id="Rectangle_5126" data-name="Rectangle 5126" width="64" height="64" transform="translate(0.151)" fill="#fff" opacity="0"/>
    <g id="Group_10325" data-name="Group 10325" transform="translate(6.151 11)">
      <g id="Group_10324" data-name="Group 10324" clip-path="url(#clip-path)">
        <path id="Path_16624" data-name="Path 16624" d="M46.661,187a1.685,1.685,0,0,1-.287.667.7.7,0,0,1-.528.171.716.716,0,0,1-.534-.171,1.688,1.688,0,0,1-.287-.667l-.7-2.723c-.04-.154-.011-.193.149-.193h.063c.161,0,.213.04.253.193l.7,2.774c.075.314.155.388.356.388s.276-.074.35-.388l.7-2.774c.04-.154.092-.193.252-.193h.063c.161,0,.189.04.149.193Z" transform="translate(-35.279 -146.573)" fill="#008ed4"/>
        <path id="Path_16625" data-name="Path 16625" d="M61.683,184.385c0-.142.04-.182.184-.182h.063c.155,0,.184.04.184.182v2.444c0,.154-.029.182-.184.182h-.063c-.143,0-.184-.029-.184-.182Zm.454-.638a.273.273,0,0,1-.247.137h-.057c-.12,0-.149-.028-.086-.142l.241-.461a.264.264,0,0,1,.287-.171h.057c.155,0,.178.034.092.165Z" transform="translate(-49.113 -145.794)" fill="#008ed4"/>
        <path id="Path_16626" data-name="Path 16626" d="M73.967,189.376c0-.746.408-1.179,1.28-1.179a1.543,1.543,0,0,1,.505.074c.138.046.172.086.172.216v.057c0,.142-.034.182-.172.137a1.468,1.468,0,0,0-.494-.08c-.643,0-.861.251-.861.781v.552c0,.575.258.78.9.78a1.6,1.6,0,0,0,.517-.074c.132-.046.172,0,.172.142v.057c0,.119-.04.165-.183.205a1.753,1.753,0,0,1-.534.074c-.879,0-1.3-.376-1.3-1.179Z" transform="translate(-58.894 -149.845)" fill="#008ed4"/>
        <path id="Path_16627" data-name="Path 16627" d="M86.284,184.867c0,.45.189.661.77.661s.763-.205.763-.661v-1.618c0-.142.04-.182.184-.182h.063c.155,0,.184.04.184.182v1.618c0,.689-.35,1.065-1.194,1.065-.8,0-1.2-.353-1.2-1.065v-1.618c0-.142.04-.182.184-.182H86.1c.155,0,.184.04.184.182Zm.781-2.119c-.109,0-.121-.04-.138-.108-.017-.16.086-.228.259-.41a.2.2,0,0,0,.075-.131c0-.1-.046-.142-.1-.148A.553.553,0,0,0,86.9,182a.105.105,0,0,1-.155-.063l-.023-.045c-.034-.085.023-.114.08-.142a.8.8,0,0,1,.339-.068.372.372,0,0,1,.4.416c0,.251-.333.353-.35.541a.126.126,0,0,1-.1.108Z" transform="translate(-68.357 -144.658)" fill="#008ed4"/>
        <path id="Path_16628" data-name="Path 16628" d="M102.413,190.219c0,.632-.373.9-1.2.9-.66,0-1.079-.262-1.079-.854s.39-.832,1.171-.832h.677v-.342c0-.387-.264-.518-.752-.518a2.78,2.78,0,0,0-.632.063c-.138.029-.184-.006-.184-.142v-.045c0-.131.034-.165.172-.194a3.03,3.03,0,0,1,.62-.057c.8,0,1.206.3,1.206.894Zm-.431-.45h-.672c-.511,0-.746.137-.746.5,0,.325.213.484.643.484.528,0,.775-.12.775-.547Z" transform="translate(-79.728 -149.845)" fill="#008ed4"/>
        <path id="Path_16629" data-name="Path 16629" d="M124.14,188.309q0,.992-1.188.991a2.624,2.624,0,0,0-.609.046.169.169,0,0,0-.138.171c0,.08.046.131.143.16a3.3,3.3,0,0,0,.6.034,1.894,1.894,0,0,1,.982.177.651.651,0,0,1,.275.6.76.76,0,0,1-.281.678,1.773,1.773,0,0,1-.976.194,1.816,1.816,0,0,1-.993-.194.682.682,0,0,1-.27-.6.67.67,0,0,1,.322-.61.387.387,0,0,1-.236-.376q0-.376.465-.444a.8.8,0,0,1-.482-.832v-.068c0-.621.442-.986,1.194-.986a1.473,1.473,0,0,1,.591.114l.327-.291c.1-.086.144-.086.235,0l.04.04c.092.086.092.131,0,.222l-.258.262a.824.824,0,0,1,.253.638Zm-1.751,1.749a.477.477,0,0,0-.27.467c0,.37.213.467.833.467.6,0,.827-.1.827-.484,0-.359-.213-.422-.827-.422a4.448,4.448,0,0,1-.563-.028m1.315-1.817c0-.4-.253-.6-.752-.6s-.764.2-.764.6v.068c0,.41.184.615.764.615s.752-.205.752-.615Z" transform="translate(-96.89 -148.904)" fill="#008ed4"/>
        <path id="Path_16630" data-name="Path 16630" d="M137.18,183.08a.271.271,0,0,1-.276.273.277.277,0,0,1-.287-.273.282.282,0,0,1,.287-.279.276.276,0,0,1,.276.279m-.494,1.059c0-.142.029-.182.184-.182h.063c.144,0,.184.04.184.182v2.444c0,.154-.04.182-.184.182h-.063c-.155,0-.184-.028-.184-.182Z" transform="translate(-108.776 -145.549)" fill="#008ed4"/>
        <path id="Path_16631" data-name="Path 16631" d="M144.387,190.219c0,.632-.373.9-1.2.9-.66,0-1.079-.262-1.079-.854s.39-.832,1.171-.832h.677v-.342c0-.387-.264-.518-.752-.518a2.78,2.78,0,0,0-.632.063c-.138.029-.184-.006-.184-.142v-.045c0-.131.034-.165.172-.194a3.03,3.03,0,0,1,.62-.057c.8,0,1.206.3,1.206.894Zm-.431-.45h-.672c-.511,0-.746.137-.746.5,0,.325.213.484.643.484.528,0,.775-.12.775-.547Z" transform="translate(-113.148 -149.845)" fill="#008ed4"/>
        <path id="Path_16632" data-name="Path 16632" d="M167.052,183.39c0,.12-.04.16-.161.16h-.344v1.994c0,.792-.419,1.19-1.257,1.19-.867,0-1.257-.4-1.257-1.19v-.53a1.056,1.056,0,0,1,1.188-1.2.93.93,0,0,1,.9.416v-.678h-.781c-.132,0-.161-.04-.161-.16v-.045c0-.119.029-.16.161-.16h.781v-.313c0-.154.029-.182.184-.182h.063c.144,0,.184.029.184.182v.313h.344c.121,0,.161.04.161.16Zm-2.59,2.148c0,.547.19.792.827.792s.827-.245.827-.792v-.53c0-.547-.2-.792-.827-.792s-.827.245-.827.792Z" transform="translate(-130.604 -145.46)" fill="#008ed4"/>
        <path id="Path_16633" data-name="Path 16633" d="M178.118,183.273c-.086-.131-.064-.165.091-.165h.057a.264.264,0,0,1,.287.171l.241.461c.057.114.04.142-.086.142h-.057a.274.274,0,0,1-.247-.137Zm.333,1.111c0-.142.04-.182.184-.182h.063c.155,0,.184.04.184.182v2.444c0,.154-.029.182-.184.182h-.063c-.144,0-.184-.028-.184-.182Z" transform="translate(-141.78 -145.793)" fill="#008ed4"/>
        <path id="Path_16634" data-name="Path 16634" d="M186.066,190.88c0,.154-.029.182-.184.182h-.063c-.144,0-.184-.029-.184-.182v-1.618c0-.712.4-1.065,1.2-1.065.844,0,1.194.376,1.194,1.065v1.618c0,.154-.029.182-.184.182h-.069c-.155,0-.184-.029-.184-.182v-1.618c0-.456-.178-.661-.758-.661s-.77.211-.77.661Z" transform="translate(-147.806 -149.845)" fill="#008ed4"/>
        <path id="Path_16635" data-name="Path 16635" d="M200.988,182.872c0-.154.04-.182.184-.182h.063c.155,0,.184.029.184.182V184.2a1,1,0,0,1,.9-.387c.706,0,1.062.33,1.062,1V186.5c0,.154-.029.182-.184.182h-.068c-.155,0-.184-.029-.184-.182v-1.635c0-.45-.2-.644-.735-.644-.551,0-.792.217-.792.741V186.5c0,.154-.029.182-.184.182h-.063c-.143,0-.184-.029-.184-.182Z" transform="translate(-160.029 -145.46)" fill="#008ed4"/>
        <path id="Path_16636" data-name="Path 16636" d="M169.067,134.9l-2.942-4.218-.3-.275h2.9l1.965,3.188.158-.129,1.188-1.765a.93.93,0,0,0-.163-1.294h2.74l-3.167,4.491v3.259l.558.664h-3.4l.48-.654c0-1.086-.04-2.185-.012-3.268m-7.988-4.492a1.222,1.222,0,0,1,.331.723,1.022,1.022,0,0,1-.06.5l-2.188,6.345a2.338,2.338,0,0,1-.622.829h2.388a.983.983,0,0,1-.332-.567.935.935,0,0,1,.008-.476l.486-1.507h2.778l.433,1.161a1.341,1.341,0,0,1,.083.365,1.092,1.092,0,0,1-.445,1.043h3.743a3.453,3.453,0,0,1-.895-1.085l-2.733-7.33Zm2.382,4.753h-1.988l.964-2.746Zm-9.952-4.746,1.881-.007h2.284a2.291,2.291,0,0,1,2.284,2.284v.281a2.289,2.289,0,0,1-2.284,2.253l-1.042.032a2.135,2.135,0,0,0,1.084-2.235c-.084-.7-.446-1.38-1.05-1.392l-.38-.008v6.261a.445.445,0,0,0,.085.28,4.281,4.281,0,0,0,.379.511l.11.132h-3.24c.049-.059.1-.12.142-.182a2.089,2.089,0,0,0,.251-.434.683.683,0,0,0,.063-.286v-6.726c-.013-.351-.361-.549-.566-.764" transform="translate(-122.227 -103.833)" fill="#004a9c" fill-rule="evenodd"/>
        <path id="Path_16637" data-name="Path 16637" d="M67.315,130.226h2.616l2.195,6.294,1.862-5.213a.606.606,0,0,0-.073-.443c-.1-.212-.213-.417-.316-.628h1.954c-.116.426-.287.892-.434,1.321l-2.522,7.33a4.115,4.115,0,0,1-2.05-.972,3.58,3.58,0,0,1-.826-1.479L67.61,130.85a5.44,5.44,0,0,0-.295-.624m10.442,2.949v4.5c0,.183.042.215.154.362l.515.672H75.965l.416-.635a.668.668,0,0,0,.153-.437v-6.283l-.692-1.126h2.551l4.13,5.32v-4.24a.678.678,0,0,0-.147-.443c-.139-.212-.283-.417-.422-.628h2.459l-.513.671c-.112.146-.154.179-.154.362v7.653a3.476,3.476,0,0,1-2.57-1.336Z" transform="translate(-53.597 -103.688)" fill="#e50019" fill-rule="evenodd"/>
        <path id="Path_16638" data-name="Path 16638" d="M2.521,136.92l-1.848-5.1-.136-.359q-.105-.26-.179-.408A2.181,2.181,0,0,0,0,130.564v-.025H2.873v.05l-.025.08a6.492,6.492,0,0,0,.192.836l1.806,5.248,1.5-4.6.075-.22.077-.267c.012-.054.02-.093.024-.118a.794.794,0,0,0,.006-.112.993.993,0,0,0-.568-.87v-.025H8.225v.031l-2.91,8.569-.982-.34q-.253-.093-.457-.185a2.713,2.713,0,0,1-.365-.2,1.977,1.977,0,0,1-.528-.535,4.247,4.247,0,0,1-.46-.961" transform="translate(0 -103.937)" fill="#e50019"/>
        <path id="Path_16639" data-name="Path 16639" d="M39.511,130.33l3.071-1.761.606,1.112-2.96,1.088Zm.785,5.784v-3.553a1.506,1.506,0,0,0-.1-.618,1.4,1.4,0,0,0-.321-.42v-.05h1.532a4.965,4.965,0,0,0,.606-.031,1.041,1.041,0,0,0,.432-.148h.05v4.869a1.851,1.851,0,0,0,.086.643.941.941,0,0,0,.358.451v.05h-3.09v-.05a1.143,1.143,0,0,0,.371-.494,2.277,2.277,0,0,0,.074-.649" transform="translate(-31.459 -102.368)" fill="#e50019"/>
        <path id="Path_16640" data-name="Path 16640" d="M73.674,7.354,71.528,9.5l-.107.106-.682.683-.508.508-.682.682-.106.106-.3.3-.105.107h0l-1.005,1h0l-.105.106a4.4,4.4,0,0,1-1.539,1,4.425,4.425,0,0,1-3.792-.3,3.041,3.041,0,0,1-.643-.453h0q-.062-.06-.125-.125L57.92,9.316l-.084-.083a1.481,1.481,0,0,1-.386-1,1.256,1.256,0,0,1,.006-.128,1.516,1.516,0,0,1,.028-.185l.017-.069.008-.029a1.514,1.514,0,0,1,.271-.513c.033-.04.068-.079.106-.118l.069-.068,4.163-4.164h0L64.64.442A1.5,1.5,0,0,1,66.689.369Z" transform="translate(-45.742 0)" fill="#004a9c"/>
        <path id="Path_16641" data-name="Path 16641" d="M83.174,27.394a2.357,2.357,0,0,1-.983-.219l-.8-.8-.2-.194-.033-.035-.372-.372L78.925,23.89q.062.064.125.125a3.034,3.034,0,0,0,.646.454,4.43,4.43,0,0,0,3.792.3,4.4,4.4,0,0,0,1.539-1l.106-.106h0l1.005-1h0l.106-.107.3-.3.106-.106.682-.682.508-.508.682-.683.107-.106,4.324-4.324,1.783-1.932.011-.011.1-.095a1.4,1.4,0,0,1,1.972,0l.976.976h0l.032.032a1.6,1.6,0,0,0-1.195.454l-3.3,3.25-.033.04-5.75,5.658-.008-.007L85.414,26.29l-.014.017c-.006.007-.051.058-.128.133a3.759,3.759,0,0,1-.982.69,2.865,2.865,0,0,1-.639.217,2.546,2.546,0,0,1-.382.047Z" transform="translate(-62.841 -10.667)" fill="#e50019"/>
        <path id="Path_16642" data-name="Path 16642" d="M118.142,29.135l-.106.107L113.353,34l-4.918,4.993a4.313,4.313,0,0,1-.494.426l-.019.017c-.024.017-.047.035-.072.051l-.008.007a4.535,4.535,0,0,1-5.757-.407l0,0c-.038-.032-.074-.064-.11-.1l-.846-.846L98.749,35.76l-.793-.793-.111-.111a2.455,2.455,0,0,0,.39.03h.11a2.758,2.758,0,0,0,.451-.054,3.254,3.254,0,0,0,.731-.247,4.167,4.167,0,0,0,1.092-.767c.072-.071.127-.131.149-.157l1.828-1.8.007.008,6.285-6.183.033-.04,3.053-3a1.206,1.206,0,0,1,1.519-.133l.724.724a0,0,0,0,1,0,0l3.925,3.925c.035.035.068.071.1.108a1.4,1.4,0,0,1-.1,1.865" transform="translate(-77.905 -17.757)" fill="#e50019"/>
        <path id="Path_16643" data-name="Path 16643" d="M87.355,22.552a.288.288,0,0,1-.4,0,4.769,4.769,0,1,0-6.769,6.718l1.45,1.462a.129.129,0,0,1,.025.032h-.021a4.331,4.331,0,0,1-.793-.02l-1.065-1.075a5.338,5.338,0,1,1,7.578-7.521l0,0a.282.282,0,0,1,0,.4" transform="translate(-62.288 -16.379)" fill="#008ed4"/>
        <path id="Path_16644" data-name="Path 16644" d="M129.226,36.158l-.4.4-.707-.711a.285.285,0,0,1,.4-.4Z" transform="translate(-101.942 -28.157)" fill="#008ed4"/>
        <path id="Path_16645" data-name="Path 16645" d="M90.069,42.5l-.012.007a4.48,4.48,0,0,1-.536.25l-1.975-1.992a3.657,3.657,0,0,1-.421-4.642.285.285,0,1,1,.47.324,3.084,3.084,0,0,0,.356,3.917Z" transform="translate(-68.86 -28.667)" fill="#008ed4"/>
        <path id="Path_16646" data-name="Path 16646" d="M104.041,32.134l-.01.01-.3.3-.1.095L101.416,30.3a3.075,3.075,0,0,0-3.144-.761.285.285,0,1,1-.175-.542,3.641,3.641,0,0,1,3.724.9Z" transform="translate(-77.949 -22.941)" fill="#008ed4"/>
        <path id="Path_16647" data-name="Path 16647" d="M100.345,39.92l-.4.4-2.227-2.244a1.4,1.4,0,1,0-1.986,1.971L97.165,41.5a.285.285,0,1,1-.4.4L95.324,40.45a1.969,1.969,0,0,1,2.8-2.774Z" transform="translate(-75.445 -29.536)" fill="#008ed4"/>
        <path id="Path_16648" data-name="Path 16648" d="M105.732,47.689l-.01.01-.3.3-.1.1L103.1,45.843a.285.285,0,0,1,.4-.4Z" transform="translate(-82.022 -36.114)" fill="#008ed4"/>
      </g>
    </g>
  </g>
</svg>
